<svg width="281" height="65" viewBox="0 0 181 33" fill="none" xmlns="http://www.w3.org/2000/svg">
<path d="M16.7024 12.112C16.6784 11.728 16.6664 11.152 16.6664 10.384V9.016C16.6664 8.104 16.6424 7.42 16.5944 6.964C16.5464 6.58 16.5224 5.584 16.5224 3.976C16.5224 3.4 16.6904 2.956 17.0264 2.644C17.3864 2.308 17.8664 2.14 18.4664 2.14C19.2344 2.14 19.7504 2.308 20.0144 2.644C20.2784 2.98 20.4104 3.532 20.4104 4.3V5.668L20.3744 9.628C20.3504 10.396 20.3384 11.548 20.3384 13.084L20.3744 16.036C20.3984 16.492 20.4104 17.128 20.4104 17.944C20.4104 18.592 20.4344 19.516 20.4824 20.716C20.5304 21.82 20.5544 22.648 20.5544 23.2C20.5544 23.656 20.4224 24.076 20.1584 24.46C19.9184 24.844 19.5824 25.036 19.1504 25.036C17.4704 25.036 16.6304 24.472 16.6304 23.344C16.6304 22.72 16.6544 22.024 16.7024 21.256C16.7504 20.704 16.7744 19.864 16.7744 18.736C16.7744 17.944 16.7504 16.804 16.7024 15.316C15.5744 15.412 13.6304 15.46 10.8704 15.46C9.14238 15.46 7.79838 15.46 6.83838 15.46C5.87838 15.436 5.18238 15.376 4.75038 15.28L4.71438 19.42C4.71438 19.684 4.77438 20.392 4.89438 21.544C5.01438 22.312 5.07438 22.984 5.07438 23.56C5.07438 23.92 4.85838 24.268 4.42638 24.604C4.01838 24.916 3.63438 25.072 3.27438 25.072C2.41038 25.072 1.82238 24.868 1.51038 24.46C1.19838 24.028 1.04238 23.38 1.04238 22.516L1.00638 19.672C0.982375 19.336 0.970375 18.868 0.970375 18.268C0.970375 17.38 0.946375 16.168 0.898375 14.632C0.850375 13.24 0.826375 12.232 0.826375 11.608C0.826375 10.672 0.850375 9.364 0.898375 7.684C0.946375 6.1 0.970375 4.924 0.970375 4.156C0.970375 3.388 1.16238 2.872 1.54638 2.608C1.93038 2.344 2.36238 2.212 2.84238 2.212C4.18638 2.212 4.85838 2.656 4.85838 3.544C4.85838 5.128 4.82238 6.64 4.75038 8.08C4.70238 9.904 4.67838 11.236 4.67838 12.076C5.37438 12.244 6.10638 12.352 6.87438 12.4C7.64238 12.448 8.72238 12.472 10.1144 12.472C12.9464 12.472 15.1424 12.352 16.7024 12.112ZM24.7802 17.368C24.7802 16.456 24.9482 15.544 25.2842 14.632C25.6202 13.696 26.0642 12.844 26.6162 12.076C27.1682 11.308 28.0442 10.684 29.2442 10.204C30.4442 9.7 31.5122 9.448 32.4482 9.448C33.4082 9.448 34.3802 9.58 35.3642 9.844C36.3722 10.108 37.0682 10.516 37.4522 11.068C38.3402 12.316 38.7842 13.54 38.7842 14.74C38.7842 15.388 38.6402 15.94 38.3522 16.396C38.0882 16.852 37.7042 17.344 37.2002 17.872C36.7922 18.304 36.1442 18.592 35.2562 18.736C34.3922 18.88 33.5282 18.952 32.6642 18.952C32.1122 18.952 31.4402 18.904 30.6482 18.808C29.8562 18.688 29.0882 18.544 28.3442 18.376C28.3922 18.856 28.5122 19.324 28.7042 19.78C28.8962 20.236 29.1242 20.584 29.3882 20.824C29.8682 21.28 30.3602 21.568 30.8642 21.688C31.3922 21.808 32.0642 21.868 32.8802 21.868C33.7442 21.868 34.5482 21.724 35.2922 21.436C35.8922 21.22 36.3842 21.112 36.7682 21.112C37.2242 21.112 37.5722 21.256 37.8122 21.544C38.0522 21.808 38.1722 22.156 38.1722 22.588C38.1722 23.188 37.8242 23.68 37.1282 24.064C36.4322 24.448 35.6282 24.736 34.7162 24.928C33.8282 25.096 33.1082 25.18 32.5562 25.18C31.4282 25.18 30.3362 24.976 29.2802 24.568C28.2242 24.16 27.3482 23.584 26.6522 22.84C26.0762 22.168 25.6202 21.364 25.2842 20.428C24.9482 19.468 24.7802 18.448 24.7802 17.368ZM32.6282 12.508C32.1002 12.508 31.5722 12.616 31.0442 12.832C30.5162 13.024 30.0842 13.3 29.7482 13.66C29.3162 14.116 29.0162 14.488 28.8482 14.776C28.7042 15.04 28.6082 15.412 28.5602 15.892C29.1602 16.084 30.4082 16.18 32.3042 16.18C33.3362 16.18 34.1282 16.024 34.6802 15.712C35.2562 15.4 35.5442 14.992 35.5442 14.488C35.5442 13.984 35.2322 13.528 34.6082 13.12C33.9842 12.712 33.3242 12.508 32.6282 12.508ZM55.9044 25.144C55.0884 25.144 54.4644 25.024 54.0324 24.784C53.6004 24.52 53.1324 24.04 52.6284 23.344C52.0044 23.896 51.0684 24.34 49.8204 24.676C48.5964 25.012 47.5404 25.18 46.6524 25.18C45.1884 25.18 44.0004 24.784 43.0884 23.992C42.2004 23.176 41.7564 21.988 41.7564 20.428C41.7564 19.756 41.9364 19.144 42.2964 18.592C42.6804 18.016 43.1724 17.512 43.7724 17.08C44.4444 16.624 45.2364 16.264 46.1484 16C47.0844 15.736 47.9364 15.604 48.7044 15.604C50.0004 15.604 51.1524 15.724 52.1604 15.964V15.928C52.1604 14.632 51.8364 13.744 51.1884 13.264C50.5644 12.76 49.5564 12.508 48.1644 12.508C47.2764 12.508 46.5084 12.904 45.8604 13.696C45.6204 14.008 45.1164 14.164 44.3484 14.164C43.9644 14.164 43.6764 14.008 43.4844 13.696C43.3164 13.36 43.2324 13.024 43.2324 12.688C43.2324 11.992 43.5204 11.392 44.0964 10.888C44.6964 10.384 45.4164 10.012 46.2564 9.772C47.0964 9.508 47.8764 9.376 48.5964 9.376C49.2924 9.376 50.1204 9.52 51.0804 9.808C52.0404 10.096 52.8204 10.48 53.4204 10.96C54.1404 11.584 54.6924 12.316 55.0764 13.156C55.4844 13.972 55.6884 14.872 55.6884 15.856C55.6884 16.168 55.6644 16.636 55.6164 17.26C55.5684 17.98 55.5444 18.568 55.5444 19.024C55.5444 19.24 55.5204 19.516 55.4724 19.852C55.4244 20.284 55.4004 20.644 55.4004 20.932C55.4004 21.244 55.4964 21.544 55.6884 21.832C55.8804 22.12 56.1444 22.36 56.4804 22.552C56.7924 22.72 56.9964 22.9 57.0924 23.092C57.1884 23.284 57.2364 23.5 57.2364 23.74C57.2364 23.98 57.0804 24.28 56.7684 24.64C56.4804 24.976 56.1924 25.144 55.9044 25.144ZM48.7044 18.268C47.7684 18.268 46.9404 18.448 46.2204 18.808C45.5004 19.168 45.1404 19.804 45.1404 20.716C45.1404 21.172 45.2964 21.556 45.6084 21.868C45.9444 22.18 46.3044 22.336 46.6884 22.336C47.7204 22.336 48.5844 22.228 49.2804 22.012C49.9764 21.796 50.8164 21.4 51.8004 20.824C51.9204 20.44 51.9924 19.9 52.0164 19.204C52.0164 18.94 52.0284 18.736 52.0524 18.592C50.7564 18.376 49.6404 18.268 48.7044 18.268ZM63.9752 19.42C63.9752 20.332 64.1072 21.04 64.3712 21.544C64.6592 22.024 65.0192 22.264 65.4512 22.264C65.6912 22.264 65.9192 22.252 66.1352 22.228C66.3512 22.18 66.5672 22.156 66.7832 22.156C67.0232 22.156 67.2272 22.276 67.3952 22.516C67.5872 22.756 67.6832 23.02 67.6832 23.308C67.6832 23.884 67.4072 24.34 66.8552 24.676C66.3272 24.988 65.6072 25.144 64.6952 25.144C64.0472 25.144 63.3872 24.952 62.7152 24.568C62.0672 24.16 61.5272 23.536 61.0952 22.696C60.6632 21.832 60.4472 20.764 60.4472 19.492C60.4472 16.756 60.4952 14.44 60.5912 12.544C60.7112 10.288 60.7712 7.444 60.7712 4.012C60.7712 2.932 60.8312 2.176 60.9512 1.744C61.0952 1.408 61.3232 1.156 61.6352 0.987998C61.9712 0.795999 62.3192 0.7 62.6792 0.7C63.0392 0.7 63.3512 0.76 63.6152 0.879999C63.9032 0.999999 64.0952 1.192 64.1912 1.456C64.2872 1.744 64.3472 2.032 64.3712 2.32C64.4192 2.584 64.4432 2.968 64.4432 3.472C64.4432 4.456 64.4072 5.404 64.3352 6.316C64.2872 7.42 64.2632 8.224 64.2632 8.728C64.0712 12.952 63.9752 16.516 63.9752 19.42ZM70.1385 12.472C69.8025 12.424 69.5265 12.292 69.3105 12.076C69.1185 11.836 69.0225 11.548 69.0225 11.212C69.0225 10.78 69.1905 10.42 69.5265 10.132C69.5985 10.06 69.7185 10 69.8865 9.952C70.0545 9.88 70.1865 9.82 70.2825 9.772C70.8105 9.604 71.1465 9.472 71.2905 9.376C71.8425 9.04 72.2145 8.488 72.4065 7.72C72.5985 6.808 72.7185 6.184 72.7665 5.848C72.8145 5.32 72.9825 4.924 73.2705 4.66C73.5825 4.372 73.9665 4.228 74.4225 4.228C75.0225 4.228 75.4425 4.384 75.6825 4.696C75.9225 5.008 76.0425 5.584 76.0425 6.424C76.0425 7.528 75.7785 8.572 75.2505 9.556C75.5865 9.556 76.1385 9.532 76.9065 9.484C78.0585 9.436 78.8625 9.412 79.3185 9.412C79.7265 9.412 80.0745 9.52 80.3625 9.736C80.6745 9.928 80.8305 10.216 80.8305 10.6C80.8305 11.512 80.4105 12.052 79.5705 12.22C78.8025 12.436 77.4105 12.568 75.3945 12.616C75.2265 14.968 75.1425 16.828 75.1425 18.196C75.1425 19.036 75.1785 19.636 75.2505 19.996C75.3945 20.74 75.6345 21.292 75.9705 21.652C76.3305 21.988 76.8585 22.156 77.5545 22.156C77.8905 22.156 78.3945 22.072 79.0665 21.904C79.4745 21.784 79.7985 21.724 80.0385 21.724C80.3505 21.724 80.5905 21.832 80.7585 22.048C80.9265 22.264 81.0105 22.552 81.0105 22.912C81.0105 23.56 80.5905 24.1 79.7505 24.532C78.9105 24.94 77.9145 25.144 76.7625 25.144C76.0425 25.144 75.3345 24.976 74.6385 24.64C73.9425 24.28 73.3545 23.848 72.8745 23.344C72.7785 23.296 72.6345 23.032 72.4425 22.552C72.2745 22.072 72.1065 21.544 71.9385 20.968C71.8665 20.68 71.8305 19.984 71.8305 18.88C71.8305 17.824 71.9025 16 72.0465 13.408L72.0825 12.616C71.9145 12.616 71.6025 12.604 71.1465 12.58C70.6905 12.532 70.3545 12.496 70.1385 12.472ZM87.9593 2.176C87.9593 2.8 87.9473 3.532 87.9233 4.372C87.8993 5.188 87.8753 5.812 87.8513 6.244C87.7793 7.468 87.7433 8.692 87.7433 9.916C87.7433 11.524 87.7793 12.82 87.8513 13.804C88.4033 12.436 89.1833 11.404 90.1913 10.708C91.1993 9.988 92.3513 9.628 93.6473 9.628C94.5353 9.628 95.3633 10.024 96.1313 10.816C96.8993 11.608 97.3913 12.532 97.6073 13.588C97.6313 13.708 97.6433 13.888 97.6433 14.128C97.6433 14.416 97.6193 14.872 97.5713 15.496C97.4993 16 97.4633 16.504 97.4633 17.008C97.4633 18.304 97.5113 19.312 97.6073 20.032C97.7033 20.728 97.9073 21.304 98.2193 21.76C98.5313 22.192 99.0233 22.54 99.6953 22.804C99.9593 22.9 100.139 23.032 100.235 23.2C100.355 23.344 100.415 23.572 100.415 23.884C100.415 24.316 100.187 24.64 99.7313 24.856C99.2993 25.072 98.8793 25.18 98.4713 25.18C97.6313 25.18 96.8753 24.952 96.2033 24.496C95.5313 24.04 95.0273 23.44 94.6913 22.696C94.4513 22.192 94.2953 21.592 94.2233 20.896C94.1513 20.2 94.1153 19.384 94.1153 18.448L94.1513 15.316C94.1513 13.612 93.5993 12.76 92.4953 12.76C91.7033 12.76 90.9353 13.408 90.1913 14.704C89.4473 16 88.8473 17.524 88.3913 19.276C87.9353 21.028 87.7073 22.468 87.7073 23.596C87.7073 24.124 87.5393 24.52 87.2033 24.784C86.8913 25.024 86.5673 25.144 86.2313 25.144C85.7033 25.144 85.2233 24.988 84.7913 24.676C84.3593 24.34 84.1433 23.968 84.1433 23.56C84.3113 21.76 84.3953 18.748 84.3953 14.524C84.3953 13.756 84.3353 10.912 84.2153 5.992L84.1073 2.68C84.1073 2.152 84.3473 1.696 84.8273 1.312C85.3073 0.903999 85.8473 0.7 86.4473 0.7C86.9753 0.7 87.3593 0.819999 87.5993 1.06C87.8393 1.3 87.9593 1.672 87.9593 2.176ZM106.687 32.344C105.775 32.344 105.007 32.188 104.383 31.876C103.783 31.588 103.327 31.228 103.015 30.796C102.727 30.388 102.583 30.028 102.583 29.716C102.583 29.308 102.727 28.984 103.015 28.744C103.303 28.528 103.651 28.42 104.059 28.42C104.299 28.42 104.527 28.492 104.743 28.636C104.959 28.78 105.079 28.864 105.103 28.888C105.271 29.008 105.439 29.104 105.607 29.176C105.775 29.272 105.955 29.32 106.147 29.32C106.675 29.32 107.107 28.972 107.443 28.276C107.779 27.58 108.115 26.452 108.451 24.892C107.371 23.308 106.471 21.724 105.751 20.14L104.923 18.232C104.803 17.944 104.467 17.2 103.915 16C103.387 14.776 102.859 13.696 102.331 12.76C101.995 12.088 101.827 11.632 101.827 11.392C101.827 10.792 102.031 10.348 102.439 10.06C102.871 9.772 103.363 9.628 103.915 9.628C104.299 9.628 104.587 9.712 104.779 9.88C104.995 10.024 105.235 10.3 105.499 10.708C106.195 11.86 106.951 13.588 107.767 15.892C108.247 17.212 108.631 18.22 108.919 18.916C109.207 19.588 109.555 20.272 109.963 20.968C110.371 20.032 110.887 18.436 111.511 16.18C111.895 14.884 112.207 13.852 112.447 13.084C112.711 12.292 112.999 11.572 113.311 10.924C113.527 10.492 113.791 10.144 114.103 9.88C114.439 9.616 114.811 9.484 115.219 9.484C115.627 9.484 116.059 9.64 116.515 9.952C116.995 10.24 117.235 10.588 117.235 10.996C117.235 11.236 117.151 11.524 116.983 11.86C116.047 14.02 115.219 16.06 114.499 17.98C113.803 19.876 113.131 21.964 112.483 24.244C112.099 25.516 111.691 26.728 111.259 27.88C110.851 29.032 110.563 29.74 110.395 30.004C109.915 30.676 109.375 31.228 108.775 31.66C108.175 32.116 107.479 32.344 106.687 32.344ZM128.588 18.52C128.588 17.176 128.6 16.156 128.624 15.46L128.66 12.04C128.66 10.648 128.624 9.124 128.552 7.468C128.528 6.964 128.444 6.268 128.3 5.38C128.108 4.036 128.012 3.028 128.012 2.356C128.012 1.252 128.564 0.7 129.668 0.7C130.364 0.7 130.856 0.891999 131.144 1.276C131.456 1.636 131.672 2.212 131.792 3.004C132.032 4.66 132.152 6.604 132.152 8.836C132.152 9.508 132.128 10.516 132.08 11.86C132.536 11.14 133.124 10.576 133.844 10.168C134.588 9.76 135.32 9.556 136.04 9.556C138.128 9.556 139.928 10.42 141.44 12.148C141.848 12.748 142.208 13.468 142.52 14.308C142.856 15.124 143.024 15.832 143.024 16.432C143.024 17.488 142.904 18.46 142.664 19.348C142.448 20.236 142.052 21.1 141.476 21.94C140.9 22.78 140.168 23.464 139.28 23.992C138.416 24.52 137.408 24.784 136.256 24.784C135.248 24.784 134.336 24.58 133.52 24.172C132.728 23.764 132.092 23.224 131.612 22.552C131.492 23.152 131.228 23.752 130.82 24.352C130.412 24.928 129.944 25.216 129.416 25.216C128.984 25.216 128.624 25.108 128.336 24.892C128.048 24.652 127.904 24.304 127.904 23.848C127.904 23.512 127.976 23.092 128.12 22.588C128.264 21.892 128.372 21.256 128.444 20.68C128.54 20.08 128.588 19.36 128.588 18.52ZM135.356 21.796C136.532 21.796 137.516 21.388 138.308 20.572C139.1 19.732 139.496 18.604 139.496 17.188C139.496 15.892 139.148 14.776 138.452 13.84C138.212 13.528 137.864 13.276 137.408 13.084C136.976 12.892 136.544 12.796 136.112 12.796C135.104 12.796 134.252 13.096 133.556 13.696C132.86 14.272 132.464 15.076 132.368 16.108C132.272 17.5 132.224 18.7 132.224 19.708C132.512 20.26 132.944 20.752 133.52 21.184C134.12 21.592 134.732 21.796 135.356 21.796ZM160.684 13.444C160.876 13.78 161.032 14.272 161.152 14.92C161.272 15.544 161.332 16.108 161.332 16.612C161.332 17.548 161.128 18.88 160.72 20.608C159.064 23.632 156.616 25.144 153.376 25.144C152.176 25.144 150.952 24.748 149.704 23.956C148.456 23.164 147.592 22.252 147.112 21.22C146.464 19.156 146.14 17.848 146.14 17.296C146.14 16.336 146.344 15.316 146.752 14.236C147.184 13.156 147.724 12.22 148.372 11.428C148.78 10.876 149.512 10.408 150.568 10.024C151.624 9.616 152.584 9.412 153.448 9.412C155.128 9.412 156.556 9.736 157.732 10.384C158.908 11.008 159.892 12.028 160.684 13.444ZM157.552 19.24C157.672 18.928 157.732 18.124 157.732 16.828C157.732 16.132 157.6 15.448 157.336 14.776C157.096 14.104 156.736 13.528 156.256 13.048C156.208 13 156.076 12.928 155.86 12.832C155.644 12.712 155.344 12.604 154.96 12.508C154.6 12.388 154.18 12.328 153.7 12.328C152.356 12.328 151.372 12.868 150.748 13.948C150.124 15.028 149.812 16.252 149.812 17.62C149.812 17.86 149.872 18.316 149.992 18.988C150.136 19.66 150.256 20.08 150.352 20.248C150.424 20.416 150.604 20.656 150.892 20.968C151.204 21.256 151.576 21.52 152.008 21.76C152.464 21.976 152.932 22.084 153.412 22.084C154.492 22.084 155.356 21.832 156.004 21.328C156.652 20.8 157.168 20.104 157.552 19.24ZM177.017 9.124C177.497 9.124 177.869 9.244 178.133 9.484C178.421 9.7 178.565 9.976 178.565 10.312C178.565 10.552 178.517 10.804 178.421 11.068C178.349 11.308 178.265 11.56 178.169 11.824C177.617 13.12 176.453 14.932 174.677 17.26C176.501 19.612 177.977 21.124 179.105 21.796C179.201 21.844 179.381 21.928 179.645 22.048C179.909 22.168 180.113 22.312 180.257 22.48C180.425 22.648 180.509 22.84 180.509 23.056C180.509 23.584 180.305 24.016 179.897 24.352C179.513 24.664 179.045 24.82 178.493 24.82C177.557 24.82 176.537 24.304 175.433 23.272C174.329 22.216 173.393 21.112 172.625 19.96C172.073 20.8 171.437 21.64 170.717 22.48C170.021 23.296 169.373 23.992 168.773 24.568C168.533 24.832 168.245 25.036 167.909 25.18C167.597 25.324 167.285 25.396 166.973 25.396C166.541 25.396 166.157 25.3 165.821 25.108C165.485 24.916 165.317 24.58 165.317 24.1C165.317 23.98 165.401 23.788 165.569 23.524C165.737 23.236 165.833 23.068 165.857 23.02C166.145 22.516 166.529 22 167.009 21.472C167.489 20.92 167.789 20.572 167.909 20.428C168.197 20.068 168.509 19.72 168.845 19.384C169.037 19.168 169.325 18.832 169.709 18.376C170.093 17.92 170.357 17.56 170.501 17.296L169.241 15.568C168.641 14.872 168.125 14.32 167.693 13.912C167.261 13.48 166.913 13.264 166.649 13.264C166.265 13.264 165.905 13.372 165.569 13.588C165.281 13.78 164.993 13.876 164.705 13.876C164.393 13.876 164.153 13.804 163.985 13.66C163.817 13.492 163.733 13.312 163.733 13.12C163.733 12.304 164.057 11.608 164.705 11.032C165.353 10.432 166.169 10.132 167.153 10.132C168.089 10.132 168.917 10.456 169.637 11.104C170.381 11.728 171.113 12.568 171.833 13.624C171.929 13.72 172.037 13.876 172.157 14.092C172.277 14.308 172.397 14.488 172.517 14.632C172.781 14.248 173.261 13.504 173.957 12.4C174.701 11.08 175.145 10.324 175.289 10.132C175.793 9.46 176.369 9.124 177.017 9.124Z" fill="#333399"/>
</svg>
