<?xml version="1.0" standalone="no"?>
<!DOCTYPE svg PUBLIC "-//W3C//DTD SVG 20010904//EN"
 "http://www.w3.org/TR/2001/REC-SVG-20010904/DTD/svg10.dtd">
<svg version="1.0" xmlns="http://www.w3.org/2000/svg"
 width="151.000000pt" height="44.000000pt" viewBox="0 0 602.000000 576.000000"
 preserveAspectRatio="xMidYMid meet">

<g transform="translate(0.000000,576.000000) scale(0.100000,-0.100000)"
fill="#000000" stroke="none">
<path d="M2600 5480 c-1671 -5 -1716 -5 -1760 -24 -107 -47 -196 -114 -315
-238 -151 -156 -191 -218 -205 -317 -10 -73 -5 -119 90 -741 63 -416 92 -616
211 -1470 21 -157 44 -314 49 -350 6 -36 17 -123 25 -193 9 -71 20 -151 25
-179 6 -28 9 -52 8 -53 -2 -1 -35 -10 -74 -19 -210 -51 -368 -244 -425 -520
-24 -119 -24 -207 1 -289 18 -59 28 -73 100 -140 43 -41 111 -96 151 -122 63
-42 186 -100 229 -109 8 -2 22 -6 30 -9 60 -24 156 -39 244 -38 101 1 117 6
216 62 28 16 47 19 95 15 33 -3 68 -6 78 -6 9 -1 15 -5 12 -11 -4 -5 0 -9 7
-9 23 0 153 -44 160 -54 4 -6 10 -7 14 -4 3 4 29 -1 58 -12 57 -21 116 -34
116 -27 0 3 -46 20 -103 37 -164 52 -309 110 -346 138 -19 14 -29 28 -23 30 7
2 10 8 7 12 -3 5 8 17 25 27 17 9 28 23 26 30 -4 9 4 13 20 13 14 0 23 4 20 8
-3 5 32 -4 77 -19 45 -15 138 -44 207 -64 568 -164 982 -329 1272 -504 65 -39
122 -71 127 -71 5 0 45 22 89 49 229 143 523 260 1027 411 498 150 581 181
694 260 63 44 146 136 186 204 56 96 158 620 260 1334 25 173 56 382 69 466
142 898 155 979 216 1401 70 482 72 527 30 612 -51 102 -259 325 -374 400
-123 81 -208 94 -626 90 -168 -1 -1077 -4 -2020 -7z m1480 -91 c82 -16 180
-72 243 -138 41 -43 73 -93 125 -197 38 -76 79 -168 90 -204 62 -191 92 -499
72 -734 -26 -307 -73 -487 -225 -861 -157 -387 -234 -596 -291 -790 -68 -236
-127 -390 -216 -569 -120 -239 -197 -358 -331 -505 -87 -96 -124 -123 -166
-119 -32 3 -39 9 -63 53 -51 96 -60 175 -68 595 -8 406 -17 498 -61 617 -65
174 -186 246 -288 173 -38 -26 -94 -142 -110 -225 -20 -110 -24 -271 -11 -481
26 -404 15 -665 -29 -752 -31 -62 -43 -67 -93 -41 -141 71 -328 257 -451 450
-55 86 -190 361 -241 492 -228 579 -219 558 -438 1007 -230 468 -305 723 -315
1065 -4 144 -2 185 15 266 45 218 171 378 354 449 210 81 436 79 921 -10 117
-21 240 -42 274 -46 l62 -6 88 64 c119 87 218 153 343 228 351 210 560 267
810 219z m-3172 -26 c6 -2 12 1 12 7 0 16 195 -3 205 -20 3 -5 42 -20 88 -35
107 -34 167 -63 167 -81 0 -8 7 -14 15 -14 8 0 15 -4 15 -10 0 -12 -36 -17
-220 -30 -85 -6 -168 -13 -184 -17 -50 -10 -152 -116 -193 -202 -60 -123 -58
-195 21 -811 8 -63 31 -250 51 -415 51 -431 90 -742 130 -1050 71 -545 86
-709 70 -736 -5 -7 7 -3 26 9 18 12 79 48 134 79 55 31 207 116 338 190 131
75 241 132 244 129 4 -3 -2 -16 -13 -28 -10 -13 -12 -17 -4 -10 18 16 40 16
40 0 -1 -7 -38 -35 -83 -62 -45 -27 -210 -127 -367 -221 -380 -228 -403 -241
-408 -227 -2 7 -8 12 -12 12 -15 0 -140 82 -140 91 0 5 27 -5 61 -21 58 -30
62 -31 86 -14 17 11 22 19 14 23 -25 16 -68 249 -111 606 -23 191 -98 768
-135 1035 -13 96 -31 236 -40 310 -20 167 -82 639 -97 738 -7 48 -14 69 -19
60 -7 -10 -9 -9 -9 4 0 9 -6 15 -12 13 -66 -14 -77 -18 -73 -25 3 -4 -4 -10
-15 -13 -11 -3 -20 -1 -20 5 0 5 -5 6 -10 3 -6 -4 -17 8 -24 26 -11 27 -15 29
-18 13 -2 -10 -9 19 -15 66 -21 154 9 227 157 383 96 101 236 224 285 250 23
12 32 13 40 4 6 -7 16 -13 23 -14z m3860 -2 c47 -24 69 -52 159 -206 203 -345
291 -582 323 -869 19 -164 -5 -421 -56 -598 -32 -113 -123 -348 -134 -348 -4
0 -13 14 -20 30 -24 59 -21 21 7 -71 26 -88 28 -106 28 -274 0 -189 -11 -277
-60 -475 -71 -283 -166 -519 -320 -795 -65 -115 -239 -356 -256 -353 -6 2 -18
-8 -26 -22 l-15 -25 22 25 c12 14 18 18 13 9 -15 -31 -92 -107 -105 -105 -7 1
-19 5 -25 9 -21 13 -35 -3 -18 -20 12 -12 19 -13 30 -3 8 7 15 8 15 3 0 -18
-127 -135 -135 -123 -4 6 1 20 11 31 9 10 12 19 6 19 -6 0 -14 -5 -17 -10 -4
-6 -11 -7 -17 -4 -8 5 -9 1 -4 -11 5 -15 4 -16 -8 -6 -12 10 -13 9 -9 -8 3
-12 12 -21 19 -21 17 0 18 -10 3 -30 -9 -13 -10 -12 -5 3 5 16 -3 21 -21 15
-5 -2 -7 -6 -6 -9 4 -12 -55 -61 -61 -51 -3 6 3 13 14 17 11 3 20 11 20 16 0
12 -7 11 -31 -1 -13 -7 -19 -7 -19 0 0 5 6 10 13 10 19 0 34 13 41 38 5 14 3
22 -4 22 -7 0 -14 -9 -17 -20 -4 -16 -8 -18 -19 -9 -11 9 -19 8 -36 -7 -41
-35 -48 -43 -47 -51 4 -24 -3 -43 -16 -43 -8 0 -15 5 -15 10 0 6 -11 10 -25
10 -31 0 -33 20 -2 21 21 0 21 1 2 8 -16 7 -23 3 -35 -18 -10 -18 -22 -26 -35
-24 -11 1 -14 0 -7 -3 17 -8 15 -34 -3 -34 -7 0 -19 -8 -24 -17 -8 -14 -10
-15 -11 -3 0 9 -6 7 -16 -9 -11 -15 -23 -21 -36 -18 -14 4 -17 2 -9 -7 12 -15
2 -30 -24 -34 -11 -2 -24 -8 -30 -12 -12 -10 -135 20 -153 37 -31 29 -26 14
12 -42 l20 -30 -34 26 c-39 28 -89 119 -90 162 0 41 23 79 82 132 97 88 208
114 255 60 l22 -25 133 132 c181 180 304 341 438 573 70 121 146 277 183 376
73 194 150 507 163 667 6 72 5 83 -15 111 -12 17 -28 59 -35 94 -8 35 -19 73
-25 85 -32 59 0 153 82 240 61 64 85 118 121 267 50 204 63 356 46 540 -21
234 -84 459 -162 575 -49 75 -89 100 -156 100 -46 0 -53 3 -76 33 -36 48 -56
104 -56 158 0 88 37 143 125 186 58 28 111 26 173 -6z m-3238 -3306 c0 -2 -10
-9 -22 -15 -22 -11 -22 -10 -4 4 21 17 26 19 26 11z m-50 -30 c0 -2 -9 -9 -20
-15 -12 -6 -20 -7 -20 -1 0 5 8 12 18 14 9 3 18 5 20 6 1 0 2 -1 2 -4z m-50
-29 c0 -2 -7 -7 -16 -10 -8 -3 -12 -2 -9 4 6 10 25 14 25 6z m-95 -66 c-3 -5
-12 -10 -18 -10 -7 0 -6 4 3 10 19 12 23 12 15 0z m-95 -54 c0 -6 -118 -80
-170 -106 -44 -22 -45 -22 -26 -1 11 11 23 21 28 21 5 0 27 12 51 27 36 23
106 61 115 63 1 0 2 -2 2 -4z m-461 -65 c11 -7 3 -15 -30 -31 -109 -55 -244
-182 -292 -276 -9 -17 -29 -76 -46 -132 -48 -163 -81 -211 -81 -119 0 171 122
422 246 508 75 51 166 74 203 50z m1314 -36 c4 -10 -30 -36 -119 -90 -69 -41
-127 -75 -129 -75 -2 0 -54 -29 -116 -65 -61 -36 -113 -65 -116 -65 -5 0 -63
-41 -80 -57 -8 -7 -31 -22 -53 -34 -22 -13 -40 -26 -40 -30 0 -4 -14 -10 -31
-14 -21 -5 -28 -10 -21 -17 7 -7 43 11 114 57 57 37 105 71 106 76 2 5 8 9 14
9 6 0 79 39 162 87 208 120 329 184 334 178 3 -3 3 -7 1 -8 -7 -7 -260 -158
-454 -272 -104 -62 -221 -132 -260 -157 -69 -45 -129 -78 -140 -78 -16 0 1 18
40 44 25 15 44 31 41 34 -3 2 -18 -4 -33 -14 -39 -26 -81 -29 -104 -8 -19 17
-26 45 -11 43 4 0 16 -4 27 -8 15 -6 32 0 65 23 25 18 83 53 130 78 197 107
435 241 630 356 19 11 36 21 36 21 1 1 4 -6 7 -14z m-1086 -700 c-56 -51 -135
-91 -209 -106 -52 -10 -164 -4 -172 10 -6 9 6 26 19 27 43 4 155 41 250 82 42
18 88 30 115 31 l45 0 -48 -44z m3153 22 c0 -2 -10 -12 -22 -23 l-23 -19 19
23 c18 21 26 27 26 19z m-95 -67 c3 -6 -1 -7 -9 -4 -18 7 -21 14 -7 14 6 0 13
-4 16 -10z"/>
<path d="M3752 5270 c-18 -4 -42 -17 -53 -29 -18 -20 -19 -21 -2 -22 10 -1 25
0 33 1 23 3 3 -14 -65 -55 l-60 -37 50 7 c28 4 57 8 65 8 8 0 18 5 22 11 4 6
11 11 16 11 14 0 92 89 92 106 0 11 -51 10 -98 -1z"/>
<path d="M1891 4864 c12 -13 25 -21 29 -19 4 3 13 -2 20 -10 18 -22 118 -41
141 -27 21 14 83 16 75 4 -3 -5 17 -9 43 -8 27 1 47 4 44 8 -4 7 44 2 75 -8 7
-2 10 1 7 6 -3 6 3 10 14 10 11 0 22 -4 25 -9 3 -5 28 -8 56 -8 57 1 54 13 -5
20 -22 3 -119 17 -215 31 -96 15 -210 28 -253 30 l-79 4 23 -24z"/>
<path d="M2170 4790 c-12 -8 -9 -10 12 -10 15 0 30 5 33 10 8 13 -25 13 -45 0z"/>
<path d="M2038 4783 c7 -3 16 -2 19 1 4 3 -2 6 -13 5 -11 0 -14 -3 -6 -6z"/>
<path d="M1704 2255 c-10 -8 -14 -15 -8 -15 6 0 17 7 24 15 16 19 9 19 -16 0z"/>
<path d="M1644 2214 c-18 -14 -18 -15 4 -4 12 6 22 13 22 15 0 8 -5 6 -26 -11z"/>
<path d="M1439 2099 c-46 -29 -112 -67 -145 -85 -106 -57 -174 -101 -168 -106
3 -4 -5 -9 -18 -13 -13 -4 -30 -14 -38 -21 -8 -8 -26 -24 -40 -35 l-25 -21 35
20 c147 83 490 297 490 307 0 9 -5 6 -91 -46z"/>
<path d="M4621 2032 c-24 -48 -59 -114 -79 -147 -48 -82 -203 -317 -219 -333
-7 -7 -13 -19 -13 -25 0 -6 23 20 50 58 28 39 58 79 67 90 10 11 16 22 14 23
-2 2 6 15 18 28 12 13 21 26 21 29 0 2 22 42 49 87 59 100 144 268 139 273 -2
3 -23 -35 -47 -83z"/>
<path d="M4194 1378 l-19 -23 23 19 c21 18 27 26 19 26 -2 0 -12 -10 -23 -22z"/>
<path d="M4150 1335 c-7 -9 -11 -18 -8 -20 3 -3 11 1 18 10 7 9 11 18 8 20 -3
3 -11 -1 -18 -10z"/>
<path d="M4356 1323 c-6 -14 -5 -15 5 -6 7 7 10 15 7 18 -3 3 -9 -2 -12 -12z"/>
<path d="M4222 1310 c-7 -11 -8 -20 -3 -20 9 0 24 30 18 36 -1 2 -8 -6 -15
-16z"/>
<path d="M4182 1308 c-16 -16 -15 -28 1 -28 7 0 13 9 13 20 0 11 -1 20 -1 20
-1 0 -6 -5 -13 -12z"/>
<path d="M4202 1268 c-46 -20 -58 -37 -48 -65 6 -14 9 -15 15 -4 7 11 9 11 14
0 3 -8 6 -4 6 9 1 15 5 21 13 16 6 -4 8 -3 4 4 -7 12 22 45 34 37 5 -3 11 -1
14 4 12 18 -9 18 -52 -1z"/>
<path d="M4066 1243 c-6 -14 -5 -15 5 -6 7 7 10 15 7 18 -3 3 -9 -2 -12 -12z"/>
<path d="M4245 1240 c-3 -5 -3 -14 0 -20 3 -5 1 -10 -6 -10 -7 0 -9 -3 -6 -7
4 -3 -3 -18 -15 -32 -12 -14 0 -4 26 22 27 26 46 51 42 54 -3 4 -13 -2 -22
-13 -13 -16 -15 -17 -10 -1 6 19 1 23 -9 7z"/>
<path d="M3645 1180 c-37 -25 -64 -60 -65 -84 0 -15 4 -13 22 10 34 44 42 51
55 47 6 -2 14 1 18 6 8 14 51 14 75 1 19 -10 50 -4 50 9 0 14 -50 31 -88 31
-20 0 -50 -9 -67 -20z"/>
<path d="M4019 1154 c-30 -23 -31 -25 -10 -22 13 2 30 13 39 26 19 28 14 28
-29 -4z"/>
<path d="M5620 5355 c0 -3 24 -33 53 -67 121 -144 176 -268 184 -418 4 -83 -3
-145 -56 -485 -34 -214 -78 -491 -97 -615 -20 -124 -55 -349 -80 -500 -24
-151 -56 -347 -70 -435 -14 -88 -57 -349 -96 -580 -38 -231 -82 -499 -98 -595
-62 -386 -100 -517 -183 -632 -129 -181 -277 -259 -797 -418 -757 -233 -958
-317 -1262 -528 -64 -45 -62 -59 10 -69 31 -4 46 1 82 24 25 17 60 39 79 49
19 10 45 29 59 42 74 67 482 225 932 362 58 17 121 38 140 45 19 7 132 45 250
83 118 39 242 82 274 97 117 52 206 126 294 245 70 94 105 164 131 260 22 83
95 466 117 620 2 14 8 45 13 70 49 236 61 311 88 512 11 84 21 132 26 125 6
-8 7 -7 4 3 -3 9 -1 40 4 70 5 30 18 123 29 205 10 83 28 195 39 250 10 55 23
134 29 175 5 41 27 185 50 320 22 135 46 283 52 330 6 47 13 94 15 105 16 87
37 218 40 259 3 27 13 87 24 135 11 47 25 111 32 141 6 30 14 118 15 196 4
126 2 147 -19 205 -12 35 -46 99 -75 143 -28 43 -52 83 -52 87 0 5 -6 9 -14 9
-8 0 -16 6 -18 14 -3 13 -148 171 -148 161z"/>
<path d="M1766 609 c3 -5 13 -9 22 -9 10 0 34 -8 54 -19 21 -10 77 -31 125
-46 48 -15 93 -30 98 -34 6 -3 19 -7 30 -8 11 -2 29 -8 40 -13 24 -12 172 -60
183 -60 8 1 -96 45 -153 65 -254 88 -317 109 -358 120 -26 7 -45 9 -41 4z"/>
<path d="M2350 407 c0 -3 15 -10 32 -16 18 -6 28 -7 23 -2 -12 10 -55 25 -55
18z"/>
<path d="M2437 369 c7 -7 15 -10 18 -7 3 3 -2 9 -12 12 -14 6 -15 5 -6 -5z"/>
</g>
</svg>
